
      <svg data-logo="logo" xmlns="http://www.w3.org/2000/svg" viewBox="0 0 231.1999969482422 41">
        <g id="logogram" transform="
    translate(0, 0.5)
    rotate(0 20 20)
    
  "><path d="M20 0C25.3043 4.00466e-07 30.3919 2.10669 34.1426 5.85742C34.8157 6.53058 35.4354 7.24719 36 8H20C16.8174 8 13.7651 9.26421 11.5146 11.5146C9.26421 13.7651 8 16.8174 8 20H20L36.9102 9.31934C38.1656 11.3074 39.0611 13.5027 39.5547 15.8027L32 20H40L39.9941 20.4971C39.8669 25.6213 37.776 30.5092 34.1426 34.1426C30.3919 37.8933 25.3043 40 20 40C14.6957 40 9.60815 37.8933 5.85742 34.1426C5.18426 33.4694 4.56459 32.7528 4 32H20C23.1826 32 26.2349 30.7358 28.4854 28.4854C30.5952 26.3755 31.8383 23.5608 31.9854 20.5947L32 20H20L3.08984 30.6787C1.83452 28.6906 0.941002 26.4951 0.447266 24.1953L8 20H0C8.00931e-07 14.6957 2.1067 9.60815 5.85742 5.85742C9.60815 2.1067 14.6957 -5.79361e-10 20 0Z" fill="#0094F7"/></g>
        <g id="logotype" transform="translate(46, 5.8774999999999995)"><path fill="#111111" d="M17.38 29.25L17.38 29.25Q14.75 29.25 12.69 28.35Q10.62 27.46 9.29 25.83Q7.96 24.20 7.50 22.04L7.50 22.04L13.28 20.74Q13.67 22.45 14.68 23.43Q15.70 24.41 17.13 24.41L17.13 24.41Q18.64 24.41 19.46 23.79Q20.28 23.16 20.28 22.11L20.28 22.11Q20.28 21.16 19.62 20.55Q18.95 19.93 17.87 19.52Q16.78 19.09 15.47 18.67Q14.16 18.25 12.84 17.73Q11.53 17.20 10.43 16.42Q9.32 15.63 8.66 14.44Q8.00 13.25 8.00 11.50L8.00 11.50Q8.00 9.19 9.12 7.54Q10.23 5.90 12.25 5.04Q14.26 4.18 16.92 4.18L16.92 4.18Q19.34 4.18 21.23 4.99Q23.12 5.79 24.31 7.21Q25.50 8.63 25.85 10.55L25.85 10.55L20.11 12.06Q19.83 10.55 18.95 9.77Q18.08 8.98 16.78 8.98L16.78 8.98Q16.01 8.98 15.38 9.24Q14.75 9.50 14.38 9.99Q14.02 10.48 14.02 11.22L14.02 11.22Q14.02 12.13 14.68 12.72Q15.35 13.32 16.47 13.76Q17.59 14.19 18.91 14.60Q20.25 15.00 21.56 15.52Q22.87 16.05 23.97 16.84Q25.08 17.63 25.76 18.80Q26.44 19.97 26.44 21.72L26.44 21.72Q26.44 23.79 25.27 25.48Q24.10 27.18 22.07 28.21Q20.04 29.25 17.38 29.25ZM38.41 29.25L38.41 29.25Q36.28 29.25 34.33 28.58Q32.39 27.91 30.90 26.64Q29.42 25.36 28.56 23.54Q27.70 21.72 27.70 19.38L27.70 19.38Q27.70 17.13 28.52 15.28Q29.35 13.42 30.76 12.06Q32.18 10.69 34.05 9.96Q35.93 9.22 38.03 9.22L38.03 9.22Q39.74 9.22 41.30 9.68Q42.86 10.13 44.10 11.01Q45.34 11.88 46.06 13.07Q46.78 14.26 46.78 15.73L46.78 15.73Q46.78 17.59 45.73 18.81Q44.68 20.04 42.98 20.74Q41.28 21.44 39.27 21.74Q37.26 22.04 35.30 22L35.30 22Q35.05 22 34.72 21.98Q34.39 21.96 34.11 21.95Q33.83 21.93 33.69 21.93L33.69 21.93Q33.90 22.73 34.58 23.38Q35.26 24.03 36.31 24.41Q37.36 24.80 38.48 24.80L38.48 24.80Q39.60 24.80 40.63 24.41Q41.67 24.03 42.51 23.43Q43.34 22.84 43.94 22.11L43.94 22.11L47.72 25.08Q46.67 26.48 45.17 27.41Q43.66 28.34 41.93 28.79Q40.20 29.25 38.41 29.25ZM35.33 18.11L35.33 18.11Q36.28 18.11 37.29 18.01Q38.31 17.91 39.16 17.64Q40.02 17.38 40.56 16.91Q41.11 16.43 41.11 15.70L41.11 15.70Q41.11 15.10 40.69 14.65Q40.27 14.19 39.57 13.95Q38.87 13.70 38.06 13.70L38.06 13.70Q36.66 13.70 35.61 14.37Q34.56 15.03 34 16.03Q33.44 17.03 33.37 18.04L33.37 18.04Q33.69 18.08 34.23 18.10Q34.77 18.11 35.33 18.11ZM55.21 29L49.30 29L49.30 9.47L55.21 9.47L55.21 13.63Q55.63 12.27 56.58 11.29Q57.52 10.31 58.76 9.77Q60.01 9.22 61.34 9.22L61.34 9.22Q63.58 9.22 65.22 10.24Q66.87 11.25 67.78 13.11Q68.69 14.96 68.69 17.52L68.69 17.52L68.69 29L62.77 29L62.77 18.46Q62.77 16.47 61.76 15.31Q60.74 14.16 59.03 14.16L59.03 14.16Q57.87 14.16 57.01 14.77Q56.16 15.38 55.68 16.43Q55.21 17.48 55.21 18.81L55.21 18.81L55.21 29ZM79.22 29.25L79.22 29.25Q77.09 29.25 75.32 28.58Q73.55 27.91 72.36 26.71Q71.17 25.50 70.65 23.93L70.65 23.93L76.11 22.70Q76.35 23.71 77.17 24.29Q78.00 24.87 79.19 24.87L79.19 24.87Q80.34 24.87 80.97 24.40Q81.60 23.93 81.60 23.26L81.60 23.26Q81.60 22.45 80.83 22.05Q80.06 21.65 78.82 21.37Q77.58 21.09 76.21 20.77Q74.85 20.46 73.62 19.85Q72.40 19.23 71.63 18.15Q70.86 17.06 70.86 15.31L70.86 15.31Q70.86 13.63 71.78 12.27Q72.71 10.90 74.48 10.06Q76.25 9.22 78.80 9.22L78.80 9.22Q80.94 9.22 82.56 9.89Q84.19 10.55 85.26 11.73Q86.33 12.90 86.78 14.51L86.78 14.51L81.57 15.87Q81.36 14.82 80.62 14.23Q79.89 13.63 78.66 13.63L78.66 13.63Q77.54 13.63 76.98 14.05Q76.42 14.47 76.42 15.17L76.42 15.17Q76.42 15.94 77.19 16.38Q77.96 16.82 79.19 17.10Q80.41 17.38 81.78 17.75Q83.14 18.11 84.37 18.74Q85.59 19.38 86.36 20.49Q87.13 21.61 87.13 23.40L87.13 23.40Q87.13 25.08 86.17 26.41Q85.21 27.74 83.42 28.49Q81.64 29.25 79.22 29.25ZM95.04 29L89.16 29L89.16 9.47L95.04 9.47L95.04 29ZM92.14 7.40L92.14 7.40Q90.42 7.40 89.34 6.42Q88.25 5.44 88.25 3.97L88.25 3.97Q88.25 2.47 89.34 1.47Q90.42 0.47 92.14 0.47L92.14 0.47Q93.82 0.47 94.90 1.47Q95.99 2.47 95.99 3.97L95.99 3.97Q95.99 5.44 94.90 6.42Q93.82 7.40 92.14 7.40ZM106.98 29.25L106.98 29.25Q104.11 29.25 101.83 28.04Q99.56 26.83 98.24 24.55Q96.93 22.28 96.93 19.23L96.93 19.23Q96.93 16.16 98.26 13.91Q99.59 11.67 101.88 10.45Q104.18 9.22 107.05 9.22L107.05 9.22Q109.95 9.22 112.24 10.43Q114.54 11.64 115.87 13.90Q117.20 16.16 117.20 19.23L117.20 19.23Q117.20 22.28 115.83 24.55Q114.47 26.83 112.16 28.04Q109.85 29.25 106.98 29.25ZM106.98 24.13L106.98 24.13Q108.06 24.13 109.02 23.59Q109.99 23.05 110.58 21.96Q111.18 20.88 111.18 19.23L111.18 19.23Q111.18 17.55 110.58 16.49Q109.99 15.42 109.06 14.89Q108.13 14.37 107.05 14.37L107.05 14.37Q105.96 14.37 105.03 14.89Q104.11 15.42 103.53 16.49Q102.95 17.55 102.95 19.23L102.95 19.23Q102.95 20.88 103.49 21.96Q104.04 23.05 104.96 23.59Q105.89 24.13 106.98 24.13ZM135.15 4.43L141.07 4.43L141.07 29L135.15 29L125.07 13.74L125.07 29L119.16 29L119.16 4.43L125.07 4.43L135.15 19.80L135.15 4.43ZM153.70 29.25L153.70 29.25Q151.57 29.25 149.62 28.58Q147.68 27.91 146.19 26.64Q144.71 25.36 143.85 23.54Q142.99 21.72 142.99 19.38L142.99 19.38Q142.99 17.13 143.81 15.28Q144.64 13.42 146.05 12.06Q147.47 10.69 149.34 9.96Q151.22 9.22 153.32 9.22L153.32 9.22Q155.03 9.22 156.59 9.68Q158.15 10.13 159.39 11.01Q160.63 11.88 161.35 13.07Q162.07 14.26 162.07 15.73L162.07 15.73Q162.07 17.59 161.02 18.81Q159.97 20.04 158.27 20.74Q156.57 21.44 154.56 21.74Q152.55 22.04 150.59 22L150.59 22Q150.34 22 150.01 21.98Q149.68 21.96 149.40 21.95Q149.12 21.93 148.98 21.93L148.98 21.93Q149.19 22.73 149.87 23.38Q150.55 24.03 151.60 24.41Q152.65 24.80 153.77 24.80L153.77 24.80Q154.89 24.80 155.92 24.41Q156.96 24.03 157.80 23.43Q158.64 22.84 159.23 22.11L159.23 22.11L163.01 25.08Q161.96 26.48 160.46 27.41Q158.95 28.34 157.22 28.79Q155.49 29.25 153.70 29.25ZM150.62 18.11L150.62 18.11Q151.57 18.11 152.58 18.01Q153.60 17.91 154.45 17.64Q155.31 17.38 155.85 16.91Q156.40 16.43 156.40 15.70L156.40 15.70Q156.40 15.10 155.98 14.65Q155.56 14.19 154.86 13.95Q154.16 13.70 153.35 13.70L153.35 13.70Q151.95 13.70 150.90 14.37Q149.85 15.03 149.29 16.03Q148.73 17.03 148.66 18.04L148.66 18.04Q148.98 18.08 149.52 18.10Q150.06 18.11 150.62 18.11ZM173.48 29.25L173.48 29.25Q170.61 29.25 168.33 28.04Q166.06 26.83 164.74 24.55Q163.43 22.28 163.43 19.23L163.43 19.23Q163.43 16.16 164.76 13.91Q166.09 11.67 168.38 10.45Q170.68 9.22 173.55 9.22L173.55 9.22Q176.45 9.22 178.74 10.43Q181.04 11.64 182.37 13.90Q183.70 16.16 183.70 19.23L183.70 19.23Q183.70 22.28 182.33 24.55Q180.97 26.83 178.66 28.04Q176.35 29.25 173.48 29.25ZM173.48 24.13L173.48 24.13Q174.56 24.13 175.52 23.59Q176.49 23.05 177.08 21.96Q177.68 20.88 177.68 19.23L177.68 19.23Q177.68 17.55 177.08 16.49Q176.49 15.42 175.56 14.89Q174.63 14.37 173.55 14.37L173.55 14.37Q172.46 14.37 171.53 14.89Q170.61 15.42 170.03 16.49Q169.45 17.55 169.45 19.23L169.45 19.23Q169.45 20.88 169.99 21.96Q170.54 23.05 171.46 23.59Q172.39 24.13 173.48 24.13Z"/></g>
        
      </svg>
    